<?xml version="1.0" encoding="UTF-8" standalone="no"?><!DOCTYPE svg PUBLIC "-//W3C//DTD SVG 1.1//EN" "http://www.w3.org/Graphics/SVG/1.1/DTD/svg11.dtd"><svg width="100%" height="100%" viewBox="0 0 246 246" version="1.1" xmlns="http://www.w3.org/2000/svg" xmlns:xlink="http://www.w3.org/1999/xlink" xml:space="preserve" xmlns:serif="http://www.serif.com/" style="fill-rule:evenodd;clip-rule:evenodd;stroke-linecap:round;stroke-linejoin:round;stroke-miterlimit:1.5;"><g transform="matrix(0.24,0,0,0.24,-295.68,0)"><g transform="matrix(1,0,0,1,-0.333333,0)"><rect id="Grid" x="1232.33" y="0" width="1024" height="1024" style="fill:none;"/><g transform="matrix(-0.692819,0.575169,-0.638754,-0.769411,3068.7,-198.282)"><rect x="1629.62" y="402.237" width="47.669" height="44.642" style="stroke:#000;stroke-width:1.05px;"/></g><g transform="matrix(-0.510242,0.741937,-0.823959,-0.56665,2764.48,-600.969)"><rect x="1629.62" y="402.237" width="47.669" height="44.642" style="stroke:#000;stroke-width:1.05px;"/></g><g transform="matrix(-0.640417,-0.632996,0.702974,-0.711215,2389.71,1685.37)"><rect x="1629.62" y="402.237" width="47.669" height="44.642" style="stroke:#000;stroke-width:1.05px;"/></g><g transform="matrix(-0.73216,0.524174,-0.582122,-0.813101,3179.31,-154.434)"><rect x="1629.62" y="402.237" width="47.669" height="44.642" style="stroke:#000;stroke-width:1.05px;"/></g><g transform="matrix(0.653986,-0.618967,0.687394,0.726285,349.156,1168.4)"><rect x="1629.62" y="402.237" width="47.669" height="44.642" style="stroke:#000;stroke-width:1.05px;"/></g><g transform="matrix(0.653986,-0.618967,0.687394,0.726285,310.567,1196.39)"><rect x="1629.62" y="402.237" width="47.669" height="44.642" style="stroke:#000;stroke-width:1.05px;"/></g><g transform="matrix(-0.273388,0.857949,-0.952796,-0.303612,2463.12,-810.64)"><rect x="1629.62" y="402.237" width="47.669" height="44.642" style="stroke:#000;stroke-width:1.05px;"/></g><g transform="matrix(0.524271,-0.732091,0.813025,0.582229,613.201,1343.97)"><rect x="1629.62" y="402.237" width="47.669" height="44.642" style="stroke:#000;stroke-width:1.05px;"/></g><g transform="matrix(0.524271,-0.732091,0.813025,0.582229,458.325,1536.67)"><rect x="1629.62" y="402.237" width="47.669" height="44.642" style="stroke:#000;stroke-width:1.05px;"/></g><g transform="matrix(0.110991,-0.893587,0.992374,0.123262,1038.28,2050.62)"><rect x="1629.62" y="402.237" width="47.669" height="44.642" style="stroke:#000;stroke-width:1.05px;"/></g><g transform="matrix(0.809481,-0.394408,0.43801,0.89897,212.543,806.325)"><rect x="1629.62" y="402.237" width="47.669" height="44.642" style="stroke:#000;stroke-width:1.05px;"/></g><g transform="matrix(0.809481,-0.394408,0.43801,0.89897,264.6,777.27)"><rect x="1629.62" y="402.237" width="47.669" height="44.642" style="stroke:#000;stroke-width:1.05px;"/></g><g transform="matrix(0.630921,-0.64246,0.713485,0.700671,486.468,1234.07)"><rect x="1629.62" y="402.237" width="47.669" height="44.642" style="stroke:#000;stroke-width:1.05px;"/></g><g transform="matrix(0.630921,-0.64246,0.713485,0.700671,486.468,1234.07)"><rect x="1629.62" y="402.237" width="47.669" height="44.642" style="stroke:#000;stroke-width:1.05px;"/></g><g transform="matrix(-0.798975,0.415277,-0.461187,-0.887303,3387.59,37.6694)"><rect x="1629.62" y="402.237" width="47.669" height="44.642" style="stroke:#000;stroke-width:1.05px;"/></g><g transform="matrix(-0.824475,0.362019,-0.40204,-0.915622,3455.49,141.385)"><rect x="1629.62" y="402.237" width="47.669" height="44.642" style="stroke:#000;stroke-width:1.05px;"/></g><g transform="matrix(-0.824475,0.362019,-0.40204,-0.915622,3502.71,129.279)"><rect x="1629.62" y="402.237" width="47.669" height="44.642" style="stroke:#000;stroke-width:1.05px;"/></g><g transform="matrix(0.422579,0.677209,-0.743447,0.463911,1552.41,-1016.91)"><rect x="1629.62" y="402.237" width="47.669" height="44.642" style="stroke:#000;stroke-width:1.19px;"/></g><g transform="matrix(0.422579,0.677209,-0.743447,0.463911,1528.8,-1053.23)"><rect x="1629.62" y="402.237" width="47.669" height="44.642" style="stroke:#000;stroke-width:1.19px;"/></g><g transform="matrix(0.740585,-0.512202,0.568827,0.822457,306.246,911.69)"><rect x="1629.62" y="402.237" width="47.669" height="44.642" style="stroke:#000;stroke-width:1.05px;"/></g><g transform="matrix(-0.187803,0.880651,-0.978008,-0.208565,2305.83,-796.219)"><rect x="1629.62" y="402.237" width="47.669" height="44.642" style="stroke:#000;stroke-width:1.05px;"/></g><g transform="matrix(0.856518,0.277837,-0.308552,0.951207,235.09,-326.689)"><rect x="1629.62" y="402.237" width="47.669" height="44.642" style="stroke:#000;stroke-width:1.05px;"/></g><g transform="matrix(-0.822355,-0.366809,0.40736,-0.913268,2679.09,1431.66)"><rect x="1629.62" y="402.237" width="47.669" height="44.642" style="stroke:#000;stroke-width:1.05px;"/></g><g transform="matrix(-0.822355,-0.366809,0.40736,-0.913268,2663.2,1312.87)"><rect x="1629.62" y="402.237" width="47.669" height="44.642" style="stroke:#000;stroke-width:1.05px;"/></g><g transform="matrix(0.80911,0.395168,-0.438854,0.898558,342.315,-763.922)"><rect x="1629.62" y="402.237" width="47.669" height="44.642" style="stroke:#000;stroke-width:1.05px;"/></g><g transform="matrix(0.668729,0.326606,-0.438854,0.898558,608.916,-619.656)"><rect x="1629.62" y="402.237" width="47.669" height="44.642" style="stroke:#000;stroke-width:1.13px;"/></g><g transform="matrix(0.198851,0.750909,-0.96668,0.25599,1642.79,-1009.53)"><rect x="1629.62" y="402.237" width="47.669" height="44.642" style="stroke:#000;stroke-width:1.12px;"/></g><g transform="matrix(-0.556863,-0.54158,0.697202,-0.716875,2229.04,1497.46)"><rect x="1629.62" y="402.237" width="47.669" height="44.642" style="stroke:#000;stroke-width:1.12px;"/></g><g transform="matrix(-0.556863,-0.54158,0.697202,-0.716875,2201.05,1449.79)"><rect x="1629.62" y="402.237" width="47.669" height="44.642" style="stroke:#000;stroke-width:1.12px;"/></g><g transform="matrix(-0.493582,0.599819,-0.772174,-0.635411,2909.41,-396.387)"><rect x="1629.62" y="402.237" width="47.669" height="44.642" style="stroke:#000;stroke-width:1.12px;"/></g><g transform="matrix(-0.493582,0.599819,-0.772174,-0.635411,2950.27,-433.463)"><rect x="1629.62" y="402.237" width="47.669" height="44.642" style="stroke:#000;stroke-width:1.12px;"/></g><g transform="matrix(-0.498994,-0.595323,0.766387,-0.642379,2272.72,1509.29)"><rect x="1629.62" y="402.237" width="47.669" height="44.642" style="stroke:#000;stroke-width:1.12px;"/></g></g></g></svg>