<?xml version="1.0" encoding="UTF-8" standalone="no"?><!DOCTYPE svg PUBLIC "-//W3C//DTD SVG 1.1//EN" "http://www.w3.org/Graphics/SVG/1.1/DTD/svg11.dtd"><svg width="100%" height="100%" viewBox="0 0 246 246" version="1.1" xmlns="http://www.w3.org/2000/svg" xmlns:xlink="http://www.w3.org/1999/xlink" xml:space="preserve" xmlns:serif="http://www.serif.com/" style="fill-rule:evenodd;clip-rule:evenodd;stroke-linecap:round;stroke-linejoin:round;stroke-miterlimit:1.5;"><g transform="matrix(0.24,0,0,0.24,-295.68,0)"><g transform="matrix(1,0,0,1,-0.333333,0)"><rect id="Grid" x="1232.33" y="0" width="1024" height="1024" style="fill:none;"/><g transform="matrix(0.150399,-0.887805,0.985952,0.167026,994.998,1822.2)"><rect x="1629.62" y="402.237" width="47.669" height="44.642" style="stroke:#000;stroke-width:1.05px;"/></g><g transform="matrix(0.707832,-0.556588,0.618119,0.786084,262.132,978.992)"><rect x="1629.62" y="402.237" width="47.669" height="44.642" style="stroke:#000;stroke-width:1.05px;"/></g><g transform="matrix(0.513668,0.739569,-0.821329,0.570454,1066.43,-1103.14)"><rect x="1629.62" y="402.237" width="47.669" height="44.642" style="stroke:#000;stroke-width:1.05px;"/></g><g transform="matrix(-0.789523,-0.432979,0.480845,-0.876806,2558.3,1442.09)"><rect x="1629.62" y="402.237" width="47.669" height="44.642" style="stroke:#000;stroke-width:1.05px;"/></g><g transform="matrix(-0.789523,-0.432979,0.480845,-0.876806,2599.05,1465.81)"><rect x="1629.62" y="402.237" width="47.669" height="44.642" style="stroke:#000;stroke-width:1.05px;"/></g><g transform="matrix(-0.241951,0.867339,-0.963224,-0.268699,2403.25,-907.285)"><rect x="1629.62" y="402.237" width="47.669" height="44.642" style="stroke:#000;stroke-width:1.05px;"/></g><g transform="matrix(-0.856433,-0.278101,0.308845,-0.951112,2832.05,1272.52)"><rect x="1629.62" y="402.237" width="47.669" height="44.642" style="stroke:#000;stroke-width:1.05px;"/></g><g transform="matrix(-0.640417,-0.632996,0.702974,-0.711215,2394.14,1702.48)"><rect x="1629.62" y="402.237" width="47.669" height="44.642" style="stroke:#000;stroke-width:1.05px;"/></g><g transform="matrix(-0.661617,0.610803,-0.678328,-0.734759,3070.93,-390.35)"><rect x="1629.62" y="402.237" width="47.669" height="44.642" style="stroke:#000;stroke-width:1.05px;"/></g><g transform="matrix(-0.661617,0.610803,-0.678328,-0.734759,3112.01,-419.904)"><rect x="1629.62" y="402.237" width="47.669" height="44.642" style="stroke:#000;stroke-width:1.05px;"/></g><g transform="matrix(0.63793,0.635502,-0.705757,0.708454,939.245,-1111.02)"><rect x="1629.62" y="402.237" width="47.669" height="44.642" style="stroke:#000;stroke-width:1.05px;"/></g><g transform="matrix(0.63793,0.635502,-0.705757,0.708454,897.397,-1141.42)"><rect x="1629.62" y="402.237" width="47.669" height="44.642" style="stroke:#000;stroke-width:1.05px;"/></g><g transform="matrix(0.438819,-0.786292,0.873218,0.48733,423.082,1273.07)"><rect x="1629.62" y="402.237" width="47.669" height="44.642" style="stroke:#000;stroke-width:1.05px;"/></g><g transform="matrix(0.438819,-0.786292,0.873218,0.48733,475.744,1196.19)"><rect x="1629.62" y="402.237" width="47.669" height="44.642" style="stroke:#000;stroke-width:1.05px;"/></g><g transform="matrix(0.438819,-0.786292,0.873218,0.48733,499.352,1158.06)"><rect x="1629.62" y="402.237" width="47.669" height="44.642" style="stroke:#000;stroke-width:1.05px;"/></g><g transform="matrix(-0.73216,0.524174,-0.582122,-0.813101,3230.73,-119.482)"><rect x="1629.62" y="402.237" width="47.669" height="44.642" style="stroke:#000;stroke-width:1.05px;"/></g><g transform="matrix(0.78148,-0.447333,0.496786,0.867873,217.246,829.787)"><rect x="1629.62" y="402.237" width="47.669" height="44.642" style="stroke:#000;stroke-width:1.05px;"/></g><g transform="matrix(0.854243,-0.284757,0.316237,0.94868,121.561,547.649)"><rect x="1629.62" y="402.237" width="47.669" height="44.642" style="stroke:#000;stroke-width:1.05px;"/></g><g transform="matrix(0.395495,-0.80895,0.898381,0.439218,602.572,1670.1)"><rect x="1629.62" y="402.237" width="47.669" height="44.642" style="stroke:#000;stroke-width:1.05px;"/></g><g transform="matrix(-0.273388,0.857949,-0.952796,-0.303612,2425.55,-794.828)"><rect x="1629.62" y="402.237" width="47.669" height="44.642" style="stroke:#000;stroke-width:1.05px;"/></g><g transform="matrix(0.524271,-0.732091,0.813025,0.582229,613.201,1343.97)"><rect x="1629.62" y="402.237" width="47.669" height="44.642" style="stroke:#000;stroke-width:1.05px;"/></g><g transform="matrix(0.107596,-0.894002,0.992835,0.119491,1024.46,1992.77)"><rect x="1629.62" y="402.237" width="47.669" height="44.642" style="stroke:#000;stroke-width:1.05px;"/></g><g transform="matrix(-0.0428649,-0.899433,0.998866,-0.0476036,1270.16,2120.37)"><rect x="1629.62" y="402.237" width="47.669" height="44.642" style="stroke:#000;stroke-width:1.05px;"/></g><g transform="matrix(-0.714318,-0.54824,0.608848,-0.793287,2544.07,1914.92)"><rect x="1629.62" y="402.237" width="47.669" height="44.642" style="stroke:#000;stroke-width:1.05px;"/></g><g transform="matrix(-0.0212355,-0.900203,0.999722,-0.0235831,1284.16,2205.08)"><rect x="1629.62" y="402.237" width="47.669" height="44.642" style="stroke:#000;stroke-width:1.05px;"/></g><g transform="matrix(0.540063,0.72052,-0.800174,0.599768,1180.07,-910.799)"><rect x="1629.62" y="402.237" width="47.669" height="44.642" style="stroke:#000;stroke-width:1.05px;"/></g><g transform="matrix(0.333942,0.836241,-0.928689,0.370859,1597.85,-960.161)"><rect x="1629.62" y="402.237" width="47.669" height="44.642" style="stroke:#000;stroke-width:1.05px;"/></g><g transform="matrix(0.134431,0.890362,-0.988793,0.149293,1966.56,-909.575)"><rect x="1629.62" y="402.237" width="47.669" height="44.642" style="stroke:#000;stroke-width:1.05px;"/></g><g transform="matrix(0.134431,0.890362,-0.988793,0.149293,1974.13,-859.447)"><rect x="1629.62" y="402.237" width="47.669" height="44.642" style="stroke:#000;stroke-width:1.05px;"/></g><g transform="matrix(-0.891179,0.128906,-0.143157,-0.9897,3262.67,893.56)"><rect x="1629.62" y="402.237" width="47.669" height="44.642" style="stroke:#000;stroke-width:1.05px;"/></g><g transform="matrix(-0.445161,-0.782719,0.869249,-0.494374,2168.12,1978.19)"><rect x="1629.62" y="402.237" width="47.669" height="44.642" style="stroke:#000;stroke-width:1.05px;"/></g><g transform="matrix(0.121681,-0.892194,0.990828,0.135133,1214.36,1990.61)"><rect x="1629.62" y="402.237" width="47.669" height="44.642" style="stroke:#000;stroke-width:1.05px;"/></g><g transform="matrix(-0.326055,-0.839348,0.932139,-0.3621,1995.32,2189.4)"><rect x="1629.62" y="402.237" width="47.669" height="44.642" style="stroke:#000;stroke-width:1.05px;"/></g><g transform="matrix(-0.856098,0.279129,-0.309987,-0.950741,3449.21,580.498)"><rect x="1629.62" y="402.237" width="47.669" height="44.642" style="stroke:#000;stroke-width:1.05px;"/></g><g transform="matrix(0.123095,0.892,-0.990612,0.136703,2138,-1184.44)"><rect x="1629.62" y="402.237" width="47.669" height="44.642" style="stroke:#000;stroke-width:1.05px;"/></g><g transform="matrix(-0.824475,0.362019,-0.40204,-0.915622,3565.85,188.5)"><rect x="1629.62" y="402.237" width="47.669" height="44.642" style="stroke:#000;stroke-width:1.05px;"/></g><g transform="matrix(0.51003,0.614048,-0.674108,0.559916,1362.96,-971.67)"><rect x="1629.62" y="402.237" width="47.669" height="44.642" style="stroke:#000;stroke-width:1.19px;"/></g><g transform="matrix(0.422579,0.677209,-0.743447,0.463911,1488.57,-1106.61)"><rect x="1629.62" y="402.237" width="47.669" height="44.642" style="stroke:#000;stroke-width:1.19px;"/></g><g transform="matrix(-0.446028,-0.662,0.726751,-0.489654,2352.04,1478.67)"><rect x="1629.62" y="402.237" width="47.669" height="44.642" style="stroke:#000;stroke-width:1.19px;"/></g><g transform="matrix(-0.446028,-0.662,0.726751,-0.489654,2380.49,1523.46)"><rect x="1629.62" y="402.237" width="47.669" height="44.642" style="stroke:#000;stroke-width:1.19px;"/></g><g transform="matrix(-0.446028,-0.662,0.726751,-0.489654,2408.33,1566.44)"><rect x="1629.62" y="402.237" width="47.669" height="44.642" style="stroke:#000;stroke-width:1.19px;"/></g><g transform="matrix(0.422579,0.677209,-0.743447,0.463911,1509.1,-1068.71)"><rect x="1629.62" y="402.237" width="47.669" height="44.642" style="stroke:#000;stroke-width:1.19px;"/></g><g transform="matrix(-0.089856,0.895959,-0.995009,-0.0997897,2131.74,-896.625)"><rect x="1629.62" y="402.237" width="47.669" height="44.642" style="stroke:#000;stroke-width:1.05px;"/></g><g transform="matrix(0.0310673,0.899918,-0.999405,0.0345018,1930.9,-912.769)"><rect x="1629.62" y="402.237" width="47.669" height="44.642" style="stroke:#000;stroke-width:1.05px;"/></g><g transform="matrix(0.723892,0.535534,-0.594738,0.803919,484.084,-827.826)"><rect x="1629.62" y="402.237" width="47.669" height="44.642" style="stroke:#000;stroke-width:1.05px;"/></g><g transform="matrix(-0.434366,0.78876,-0.875959,-0.482386,2454.44,-732.494)"><rect x="1629.62" y="402.237" width="47.669" height="44.642" style="stroke:#000;stroke-width:1.05px;"/></g><g transform="matrix(-0.837456,-0.330885,0.367464,-0.930038,2532.5,1221.07)"><rect x="1629.62" y="402.237" width="47.669" height="44.642" style="stroke:#000;stroke-width:1.05px;"/></g><g transform="matrix(-0.434366,0.78876,-0.875959,-0.482386,2485.31,-796.053)"><rect x="1629.62" y="402.237" width="47.669" height="44.642" style="stroke:#000;stroke-width:1.05px;"/></g><g transform="matrix(-0.243111,0.867014,-0.962864,-0.269987,2230.19,-1119.73)"><rect x="1629.62" y="402.237" width="47.669" height="44.642" style="stroke:#000;stroke-width:1.05px;"/></g><g transform="matrix(-0.243111,0.867014,-0.962864,-0.269987,2264.7,-1214.77)"><rect x="1629.62" y="402.237" width="47.669" height="44.642" style="stroke:#000;stroke-width:1.05px;"/></g><g transform="matrix(-0.243111,0.867014,-0.962864,-0.269987,2255.01,-1171.18)"><rect x="1629.62" y="402.237" width="47.669" height="44.642" style="stroke:#000;stroke-width:1.05px;"/></g><g transform="matrix(0.861251,0.2628,-0.291853,0.956463,106.583,-750.954)"><rect x="1629.62" y="402.237" width="47.669" height="44.642" style="stroke:#000;stroke-width:1.05px;"/></g><g transform="matrix(-0.864736,-0.251095,0.278854,-0.960334,2711.47,959.756)"><rect x="1629.62" y="402.237" width="47.669" height="44.642" style="stroke:#000;stroke-width:1.05px;"/></g><g transform="matrix(-0.416585,0.798294,-0.886547,-0.462639,2573,-1055.67)"><rect x="1629.62" y="402.237" width="47.669" height="44.642" style="stroke:#000;stroke-width:1.05px;"/></g><g transform="matrix(0.220141,-0.873129,0.969655,0.244478,571.725,1461.01)"><rect x="1629.62" y="402.237" width="47.669" height="44.642" style="stroke:#000;stroke-width:1.05px;"/></g><g transform="matrix(0.861251,0.2628,-0.291853,0.956463,60.5791,-763.666)"><rect x="1629.62" y="402.237" width="47.669" height="44.642" style="stroke:#000;stroke-width:1.05px;"/></g><g transform="matrix(0.878588,0.197231,-0.219035,0.975717,-6.87178,-552.046)"><rect x="1629.62" y="402.237" width="47.669" height="44.642" style="stroke:#000;stroke-width:1.05px;"/></g><g transform="matrix(-0.203845,0.877077,-0.974039,-0.22638,2016.26,-1170.62)"><rect x="1629.62" y="402.237" width="47.669" height="44.642" style="stroke:#000;stroke-width:1.05px;"/></g><g transform="matrix(-0.203845,0.877077,-0.974039,-0.22638,2027.16,-1217.23)"><rect x="1629.62" y="402.237" width="47.669" height="44.642" style="stroke:#000;stroke-width:1.05px;"/></g><g transform="matrix(-0.203845,0.877077,-0.974039,-0.22638,2039.26,-1264.45)"><rect x="1629.62" y="402.237" width="47.669" height="44.642" style="stroke:#000;stroke-width:1.05px;"/></g><g transform="matrix(-0.243111,0.867014,-0.962864,-0.269987,2213.24,-1074.33)"><rect x="1629.62" y="402.237" width="47.669" height="44.642" style="stroke:#000;stroke-width:1.05px;"/></g><g transform="matrix(0.866806,0.243853,-0.270811,0.962632,201.231,-335.613)"><rect x="1629.62" y="402.237" width="47.669" height="44.642" style="stroke:#000;stroke-width:1.05px;"/></g><g transform="matrix(0.649935,0.623219,-0.692116,0.721786,691.423,-892.93)"><rect x="1629.62" y="402.237" width="47.669" height="44.642" style="stroke:#000;stroke-width:1.05px;"/></g><g transform="matrix(0.411623,-0.800864,0.889401,0.457128,413.143,1406.52)"><rect x="1629.62" y="402.237" width="47.669" height="44.642" style="stroke:#000;stroke-width:1.05px;"/></g><g transform="matrix(0.80911,0.395168,-0.438854,0.898558,343,-803.141)"><rect x="1629.62" y="402.237" width="47.669" height="44.642" style="stroke:#000;stroke-width:1.05px;"/></g><g transform="matrix(0.289737,0.685509,-0.921105,0.389313,1451.85,-1019.93)"><rect x="1629.62" y="402.237" width="47.669" height="44.642" style="stroke:#000;stroke-width:1.13px;"/></g><g transform="matrix(0.198851,0.750909,-0.96668,0.25599,1635.47,-1033.87)"><rect x="1629.62" y="402.237" width="47.669" height="44.642" style="stroke:#000;stroke-width:1.12px;"/></g><g transform="matrix(-0.556863,-0.54158,0.697202,-0.716875,2238.83,1478.71)"><rect x="1629.62" y="402.237" width="47.669" height="44.642" style="stroke:#000;stroke-width:1.12px;"/></g><g transform="matrix(-0.556863,-0.54158,0.697202,-0.716875,2209.66,1444.26)"><rect x="1629.62" y="402.237" width="47.669" height="44.642" style="stroke:#000;stroke-width:1.12px;"/></g><g transform="matrix(0.778435,-0.705479,0.671531,0.740976,205.926,1179.21)"><rect x="1629.62" y="402.237" width="47.669" height="44.642" style="stroke:#000;stroke-width:0.98px;"/></g><g transform="matrix(0.615993,-0.719906,0.759814,0.650141,472.793,1207.87)"><rect x="1629.62" y="402.237" width="47.669" height="44.642" style="stroke:#000;stroke-width:1.03px;"/></g><g transform="matrix(0.615993,-0.719906,0.759814,0.650141,503.083,1172.07)"><rect x="1629.62" y="402.237" width="47.669" height="44.642" style="stroke:#000;stroke-width:1.03px;"/></g><g transform="matrix(-0.597213,-0.712503,0.766387,-0.642379,2434.91,1678.51)"><rect x="1629.62" y="402.237" width="47.669" height="44.642" style="stroke:#000;stroke-width:1.04px;"/></g><g transform="matrix(-0.691199,0.621746,-0.668767,-0.743472,3234.13,-519.81)"><rect x="1629.62" y="402.237" width="47.669" height="44.642" style="stroke:#000;stroke-width:1.04px;"/></g><g transform="matrix(0.6001,0.710073,-0.763774,0.645484,1112.08,-1322.62)"><rect x="1629.62" y="402.237" width="47.669" height="44.642" style="stroke:#000;stroke-width:1.04px;"/></g><g transform="matrix(-0.806026,0.4633,-0.498337,-0.866983,3415.15,-273.67)"><rect x="1629.62" y="402.237" width="47.669" height="44.642" style="stroke:#000;stroke-width:1.04px;"/></g><g transform="matrix(-0.477018,-0.797984,0.858333,-0.513094,2269.74,1618.58)"><rect x="1629.62" y="402.237" width="47.669" height="44.642" style="stroke:#000;stroke-width:1.04px;"/></g><g transform="matrix(-0.806026,0.4633,-0.498337,-0.866983,3457.53,-296.067)"><rect x="1629.62" y="402.237" width="47.669" height="44.642" style="stroke:#000;stroke-width:1.04px;"/></g><g transform="matrix(0.6001,0.710073,-0.763774,0.645484,1077.06,-1362.58)"><rect x="1629.62" y="402.237" width="47.669" height="44.642" style="stroke:#000;stroke-width:1.04px;"/></g><g transform="matrix(0.704962,0.606096,-0.651933,0.758276,819.872,-1274.87)"><rect x="1629.62" y="402.237" width="47.669" height="44.642" style="stroke:#000;stroke-width:1.04px;"/></g><g transform="matrix(-0.597213,-0.712503,0.766387,-0.642379,2402.83,1643.44)"><rect x="1629.62" y="402.237" width="47.669" height="44.642" style="stroke:#000;stroke-width:1.04px;"/></g><g transform="matrix(-0.726594,-0.579987,0.62385,-0.781544,2627.64,1438.62)"><rect x="1629.62" y="402.237" width="47.669" height="44.642" style="stroke:#000;stroke-width:1.04px;"/></g><g transform="matrix(-0.844301,-0.389204,0.418638,-0.908153,2859.14,1144.24)"><rect x="1629.62" y="402.237" width="47.669" height="44.642" style="stroke:#000;stroke-width:1.04px;"/></g><g transform="matrix(1,0,0,1,0.333333,0)"><path d="M1320.52,966.936c59.631,-46.499 112.84,-90.247 181.746,-140.721c5.482,-4.015 9.262,-7.045 14.954,-11.15" style="fill:none;stroke:#1a32e6;stroke-width:12.5px;stroke-linecap:butt;"/></g><g transform="matrix(1,0,0,1,0.333333,0)"><path d="M1526.48,811.978l6.456,-3.123l172.689,-64.295l107.041,-38.016l6.888,-3.096" style="fill:none;stroke:#1a32e6;stroke-width:12.5px;stroke-linecap:butt;"/></g><g transform="matrix(1,0,0,1,0.333333,0)"><path d="M1830.11,700.433l6.717,-3.225l109.382,-41.075l164.715,-64.858l98.661,-38.131" style="fill:none;stroke:#1a32e6;stroke-width:12.5px;stroke-linecap:butt;"/></g><g transform="matrix(1,0,0,1,0.333333,0)"><path d="M1462.01,733.409l44.128,-67.95l69.754,-18.916l16.551,-104.04l33.104,-88.669" style="fill:none;stroke:#1a32e6;stroke-width:12.5px;stroke-linecap:butt;"/></g><g transform="matrix(1,0,0,1,0.333333,0)"><path d="M1625.54,453.834l8.276,-65.025l106.403,-78.029l75.665,-75.665l47.911,-81.044l203.911,-88.02l114.68,-57.931" style="fill:none;stroke:#1a32e6;stroke-width:12.5px;stroke-linecap:butt;"/></g><g transform="matrix(1,0,0,1,0.333333,0)"><path d="M1805.25,360.435l-31.921,3.547l-46.109,60.295l-61.477,26.01l-39.015,7.093l-113.497,-11.822l-88.67,-85.123l-9.305,-6.315" style="fill:none;stroke:#1a32e6;stroke-width:12.5px;stroke-linecap:butt;"/></g><g transform="matrix(1,0,0,1,0.333333,0)"><path d="M1404.32,348.01l-51.432,-29.682l-96.21,-14.642" style="fill:none;stroke:#1a32e6;stroke-width:12.5px;stroke-linecap:butt;"/></g><g transform="matrix(1,0,0,1,0.333333,0)"><path d="M1993.23,293.046l-37.833,3.547l-76.947,-125.376l-10.54,-14.131" style="fill:none;stroke:#1a32e6;stroke-width:12.5px;stroke-linecap:butt;"/></g><g transform="matrix(1,0,0,1,0.333333,0)"><path d="M1862.88,153.066c-4.442,-4.775 -3.735,-5.364 -7.939,-9.821c-25.527,-27.065 -46.867,-48.548 -66.404,-67.626c-27.314,-26.672 -51.101,-48.643 -77.873,-74.592" style="fill:none;stroke:#1a32e6;stroke-width:12.5px;stroke-linecap:butt;"/></g><g transform="matrix(1,0,0,1,0.333333,0)"><path d="M1770.96,276.494l-59.113,-65.024l-86.305,-72.118l-78.03,4.729l-50.837,-37.833l-95.763,-50.837l-112.315,-24.828l-56.749,-4.729" style="fill:none;stroke:#1a32e6;stroke-width:12.5px;stroke-linecap:butt;"/></g><g transform="matrix(1,0,0,1,0.333333,0)"><path d="M1595.99,4.574l-70.936,108.768l-2.946,4.662" style="fill:none;stroke:#1a32e6;stroke-width:12.5px;stroke-linecap:butt;"/></g><g transform="matrix(1,0,0,1,0.333333,0)"><path d="M1515.35,125.907l-2.782,4.004l-59.64,79.194l-14.187,89.852l-23.975,43.075l-42.449,75.32l-48.892,192.123l-103.098,12.216" style="fill:none;stroke:#1a32e6;stroke-width:12.5px;stroke-linecap:butt;"/></g><g transform="matrix(1,0,0,1,0.333333,0)"><path d="M1322.88,609.892l135.961,127.685l62.605,75.61l21.335,115.917l3.547,59.113" style="fill:none;stroke:#1a32e6;stroke-width:12.5px;stroke-linecap:butt;"/></g><g transform="matrix(1,0,0,1,0.333333,0)"><path d="M1728.4,421.913l45.001,78.78l47.215,191.958l28.375,74.483l120.59,86.305l134.779,-21.281l85.123,36.65l24.827,36.65" style="fill:none;stroke:#1a32e6;stroke-width:12.5px;stroke-linecap:butt;"/></g><g transform="matrix(1,0,0,1,0.333333,0)"><path d="M2060.62,71.963l17.734,95.763l75.665,10.64l21.28,41.379l-18.916,141.872" style="fill:none;stroke:#1a32e6;stroke-width:12.5px;stroke-linecap:butt;"/></g><g transform="matrix(1,0,0,1,0.333333,0)"><path d="M1350.08,11.667l-47.29,146.601l-16.552,100.492l-69.753,101.675" style="fill:none;stroke:#1a32e6;stroke-width:12.5px;stroke-linecap:butt;"/></g></g></g></svg>